# xmcd CD database file
#
# Track frame offsets:
#	150
#	20308
#	54276
#	88233
#	106711
#	151563
#
# Disc length: 2403 seconds
#
# Revision: 0
# Processed by: cddbd v1.5.1PL0 Copyright (c) Steve Scherf et al.
# Submitted via: CDex 1.51
#
DISCID=33096106
DTITLE=The Chemical Brothers - Galvanize [JPN]
DYEAR=2005
DGENRE=Club
TTITLE0=Galvanize feat Q-Tip (Single Edit)
TTITLE1=Galvanize feat Q-Tip (Extended Version)
TTITLE2=Galvanize feat Q-Tip (Abe Duque Remix)
TTITLE3=Rize Up
TTITLE4=Electronic Battle Weapon 7
TTITLE5=CCCD Data
EXTD=YEAR: 2005
EXTT0=
EXTT1=
EXTT2=
EXTT3=
EXTT4=
EXTT5=
PLAYORDER=
